<svg width="20" height="20" viewBox="0 0 20 20" fill="none" xmlns="http://www.w3.org/2000/svg">
<path d="M15.7071 10.2932C15.6143 10.2003 15.5041 10.1265 15.3828 10.0762C15.2615 10.0259 15.1314 10 15.0001 10C14.8688 10 14.7387 10.0259 14.6174 10.0762C14.4961 10.1265 14.3859 10.2003 14.2931 10.2932L12.6991 11.8872C11.9601 11.6672 10.5811 11.1672 9.70709 10.2932C8.83309 9.4192 8.33309 8.0402 8.11309 7.3012L9.70709 5.7072C9.80004 5.61441 9.87377 5.50421 9.92408 5.38289C9.97439 5.26158 10.0003 5.13154 10.0003 5.0002C10.0003 4.86887 9.97439 4.73882 9.92408 4.61751C9.87377 4.49619 9.80004 4.38599 9.70709 4.2932L5.70709 0.293201C5.6143 0.200255 5.5041 0.126518 5.38278 0.0762068C5.26147 0.0258961 5.13142 0 5.00009 0C4.86876 0 4.73871 0.0258961 4.6174 0.0762068C4.49608 0.126518 4.38588 0.200255 4.29309 0.293201L1.58109 3.0052C1.20109 3.3852 0.98709 3.9072 0.99509 4.4402C1.01809 5.8642 1.39509 10.8102 5.29309 14.7082C9.19109 18.6062 14.1371 18.9822 15.5621 19.0062H15.5901C16.1181 19.0062 16.6171 18.7982 16.9951 18.4202L19.7071 15.7082C19.8 15.6154 19.8738 15.5052 19.9241 15.3839C19.9744 15.2626 20.0003 15.1325 20.0003 15.0012C20.0003 14.8699 19.9744 14.7398 19.9241 14.6185C19.8738 14.4972 19.8 14.387 19.7071 14.2942L15.7071 10.2932ZM15.5801 17.0052C14.3321 16.9842 10.0621 16.6492 6.70709 13.2932C3.34109 9.9272 3.01509 5.6422 2.99509 4.4192L5.00009 2.4142L7.58609 5.0002L6.29309 6.2932C6.17555 6.41065 6.08913 6.55554 6.04164 6.71477C5.99415 6.874 5.98709 7.04256 6.02109 7.2052C6.04509 7.3202 6.63209 10.0472 8.29209 11.7072C9.95209 13.3672 12.6791 13.9542 12.7941 13.9782C12.9566 14.0132 13.1254 14.0067 13.2847 13.9593C13.4441 13.9119 13.589 13.8253 13.7061 13.7072L15.0001 12.4142L17.5861 15.0002L15.5801 17.0052Z" fill="#E9E9E9"/>
</svg>
